<svg xmlns="http://www.w3.org/2000/svg" xmlns:xlink="http://www.w3.org/1999/xlink" width="150px" height="47px" viewBox="0 0 149 47" version="1.1">
<g id="surface1">
<path style=" stroke:none;fill-rule:nonzero;fill:#f9f9f9;fill-opacity:1;" d="M 46.96875 16.535156 L 46.96875 30.464844 C 46.964844 31.980469 45.738281 33.210938 44.226562 33.207031 L 35.929688 33.207031 C 34.417969 33.207031 33.1875 34.433594 33.1875 35.953125 L 33.1875 44.253906 C 33.183594 45.773438 31.957031 47.003906 30.441406 47 L 20.761719 47 L 20.761719 24.164062 C 20.699219 23.160156 20.992188 22.171875 21.589844 21.367188 C 22.164062 20.695312 23.015625 20.328125 23.898438 20.371094 C 24.707031 20.335938 25.496094 20.644531 26.070312 21.214844 C 26.648438 21.789062 26.960938 22.578125 26.933594 23.390625 C 26.972656 24.289062 26.589844 25.15625 25.898438 25.730469 C 25.859375 25.761719 25.816406 25.796875 25.773438 25.828125 C 24.984375 26.367188 24.042969 26.636719 23.089844 26.589844 L 22.003906 26.589844 L 22.003906 33.339844 L 22.734375 33.339844 C 26.175781 33.339844 28.9375 32.4375 31.007812 30.632812 C 32.464844 29.394531 33.472656 27.703125 33.871094 25.828125 C 34.035156 25.058594 34.117188 24.277344 34.113281 23.488281 C 34.167969 20.847656 33.121094 18.304688 31.222656 16.472656 C 29.320312 14.582031 26.730469 13.550781 24.054688 13.621094 C 20.964844 13.621094 18.46875 14.597656 16.570312 16.554688 C 14.671875 18.507812 13.71875 21.054688 13.71875 24.199219 L 13.71875 35.367188 C 13.441406 34.105469 12.328125 33.207031 11.039062 33.207031 L 2.742188 33.207031 C 1.230469 33.210938 0.00390625 31.980469 0 30.464844 L 0 16.535156 C 0.00390625 15.019531 1.230469 13.789062 2.742188 13.792969 L 11.039062 13.792969 C 12.550781 13.792969 13.78125 12.566406 13.78125 11.046875 L 13.78125 2.746094 C 13.785156 1.226562 15.011719 -0.00390625 16.527344 0 L 30.441406 0 C 31.957031 -0.00390625 33.183594 1.226562 33.1875 2.746094 L 33.1875 11.046875 C 33.1875 12.566406 34.417969 13.792969 35.929688 13.792969 L 44.226562 13.792969 C 45.738281 13.789062 46.964844 15.019531 46.96875 16.535156 Z M 46.96875 16.535156 "/>
<path style=" stroke:none;fill-rule:nonzero;fill:#f9f9f9;fill-opacity:1;" d="M 56.261719 35.289062 L 56.261719 21.105469 C 56.246094 20.160156 56.296875 19.214844 56.414062 18.273438 C 56.507812 17.664062 56.6875 17.070312 56.949219 16.511719 C 57.578125 15.109375 58.609375 13.921875 59.914062 13.105469 C 61.230469 12.265625 62.765625 11.824219 64.328125 11.839844 C 66.511719 11.773438 68.621094 12.632812 70.148438 14.199219 C 71.699219 15.800781 72.535156 17.964844 72.460938 20.199219 C 72.53125 22.425781 71.703125 24.585938 70.15625 26.1875 C 68.632812 27.761719 66.515625 28.621094 64.328125 28.558594 L 63.722656 28.558594 C 63.53125 28.523438 63.324219 28.5 63.101562 28.476562 C 62.769531 28.4375 62.441406 28.378906 62.113281 28.300781 L 62.113281 23.003906 C 62.613281 23.164062 63.015625 23.277344 63.324219 23.339844 C 63.59375 23.398438 63.863281 23.429688 64.136719 23.4375 C 64.984375 23.476562 65.808594 23.15625 66.410156 22.558594 C 67 21.917969 67.308594 21.066406 67.261719 20.199219 C 67.300781 19.347656 67.011719 18.519531 66.457031 17.875 C 65.226562 16.683594 63.269531 16.699219 62.058594 17.910156 C 61.542969 18.519531 61.285156 19.417969 61.285156 20.597656 L 61.285156 35.289062 Z M 56.261719 35.289062 "/>
<path style=" stroke:none;fill-rule:nonzero;fill:#f9f9f9;fill-opacity:1;" d="M 74.738281 28.332031 L 74.738281 12.15625 L 79.410156 12.15625 L 79.410156 14.582031 C 79.878906 13.789062 80.570312 13.152344 81.394531 12.746094 C 82.367188 12.320312 83.421875 12.121094 84.480469 12.15625 L 85.085938 12.15625 L 85.085938 17.054688 L 84.863281 17.054688 C 83.023438 17.054688 81.699219 17.460938 80.886719 18.273438 C 80.074219 19.089844 79.667969 20.414062 79.667969 22.253906 L 79.667969 28.332031 Z M 74.738281 28.332031 "/>
<path style=" stroke:none;fill-rule:nonzero;fill:#f9f9f9;fill-opacity:1;" d="M 86.011719 20.230469 C 86.003906 19.140625 86.210938 18.058594 86.617188 17.046875 C 87.042969 16.019531 87.660156 15.078125 88.433594 14.277344 C 89.183594 13.511719 90.078125 12.898438 91.066406 12.484375 C 92.046875 12.058594 93.105469 11.839844 94.171875 11.839844 C 95.253906 11.832031 96.324219 12.046875 97.324219 12.46875 C 98.316406 12.886719 99.214844 13.507812 99.960938 14.285156 C 100.71875 15.070312 101.316406 15.992188 101.722656 17.007812 C 102.132812 18.03125 102.339844 19.125 102.335938 20.230469 C 102.339844 20.785156 102.289062 21.339844 102.191406 21.886719 C 101.890625 23.5 101.117188 24.984375 99.976562 26.15625 C 98.460938 27.742188 96.363281 28.632812 94.171875 28.621094 C 93.113281 28.625 92.058594 28.414062 91.082031 28 C 90.082031 27.570312 89.179688 26.941406 88.425781 26.15625 C 86.871094 24.582031 86 22.449219 86.011719 20.230469 Z M 91.242188 20.199219 C 91.222656 21.054688 91.53125 21.886719 92.097656 22.527344 C 92.605469 23.144531 93.367188 23.503906 94.164062 23.5 C 94.96875 23.5 95.734375 23.148438 96.257812 22.535156 C 97.429688 21.203125 97.433594 19.203125 96.265625 17.867188 C 95.742188 17.25 94.972656 16.890625 94.164062 16.894531 C 93.371094 16.894531 92.617188 17.25 92.105469 17.859375 C 91.53125 18.5 91.21875 19.335938 91.242188 20.199219 Z M 91.242188 20.199219 "/>
<path style=" stroke:none;fill-rule:nonzero;fill:#f9f9f9;fill-opacity:1;" d="M 104.585938 8.199219 L 109.652344 8.199219 L 109.652344 12.15625 L 113.65625 12.15625 L 113.65625 16.894531 L 109.652344 16.894531 L 109.652344 22 C 109.609375 22.441406 109.746094 22.878906 110.035156 23.210938 C 110.414062 23.484375 110.878906 23.609375 111.34375 23.5625 L 113.65625 23.5625 L 113.65625 28.332031 L 111.773438 28.332031 C 109.308594 28.332031 107.492188 27.792969 106.328125 26.707031 C 105.167969 25.621094 104.585938 23.929688 104.585938 21.632812 Z M 104.585938 8.199219 "/>
<path style=" stroke:none;fill-rule:nonzero;fill:#f9f9f9;fill-opacity:1;" d="M 132.4375 22.320312 C 131.703125 24.179688 130.460938 25.792969 128.855469 26.976562 C 127.339844 28.066406 125.515625 28.644531 123.652344 28.621094 C 121.480469 28.617188 119.402344 27.738281 117.886719 26.179688 C 117.117188 25.398438 116.511719 24.472656 116.101562 23.453125 C 115.691406 22.429688 115.484375 21.332031 115.488281 20.230469 C 115.480469 19.121094 115.6875 18.023438 116.101562 17 C 116.9375 14.976562 118.527344 13.359375 120.535156 12.5 C 122.996094 11.464844 125.808594 11.714844 128.050781 13.171875 C 129.441406 14.128906 130.554688 15.4375 131.289062 16.957031 L 123.460938 22.285156 L 121.5 19.320312 L 125.742188 16.371094 C 125.484375 16.199219 125.203125 16.066406 124.90625 15.972656 C 124.597656 15.875 124.277344 15.824219 123.957031 15.828125 C 122.988281 15.824219 122.0625 16.238281 121.421875 16.96875 C 120.710938 17.722656 120.324219 18.730469 120.351562 19.765625 C 120.320312 20.8125 120.691406 21.828125 121.386719 22.605469 C 122.023438 23.347656 122.949219 23.765625 123.921875 23.753906 C 124.855469 23.757812 125.765625 23.460938 126.523438 22.910156 C 127.390625 22.261719 128.09375 21.421875 128.578125 20.453125 Z M 132.4375 22.320312 "/>
<path style=" stroke:none;fill-rule:nonzero;fill:#f9f9f9;fill-opacity:1;" d="M 134.238281 28.332031 L 134.238281 5.488281 L 139.308594 5.488281 L 139.308594 17.359375 L 140.246094 17.359375 C 140.722656 17.367188 141.183594 17.179688 141.515625 16.839844 C 141.996094 16.257812 142.359375 15.589844 142.589844 14.871094 L 143.644531 12.15625 L 149 12.15625 L 147.101562 17.054688 C 146.9375 17.507812 146.664062 17.914062 146.304688 18.234375 C 145.929688 18.574219 145.492188 18.828125 145.015625 18.984375 C 146.09375 19.175781 147.066406 19.757812 147.75 20.621094 C 148.316406 21.414062 148.601562 22.546875 148.601562 24.027344 L 148.601562 28.332031 L 143.546875 28.332031 L 143.546875 24.648438 C 143.546875 23.746094 143.355469 23.089844 142.964844 22.679688 C 142.464844 22.226562 141.796875 22.003906 141.125 22.0625 L 139.308594 22.0625 L 139.308594 28.332031 Z M 134.238281 28.332031 "/>
</g>
</svg>